# File created by Blade
# Date/Time:  Tue Apr 07 20:53:11 2015
# Frame Rate: 120.000 fps
#------------------------------------------------------
:FULLY-SPECIFIED
:DEGREES
466
root -26.768107 32.683971 5.408023 22.698372 -78.962552 -15.783566
Spine -18.609563 -10.404972 3.818708
Head 26.330006 -3.309724 0.457803
LeftShoulder -17.295079 18.945332 44.563051
LeftArm 122.992157 -62.859880 -75.062808
LeftForeArm 26.769440 -0.000000 19.827316
LeftHand 19.941773 -0.000000 38.185698
LeftHandThumb1 -26.253704 0.000000 33.147579
RightShoulder -21.326372 34.637287 -62.189042
RightArm 59.652009 24.125250 35.971128
RightForeArm -21.249580 -0.000000 15.519374
RightHand 27.827097 0.000000 -51.180115
RightHandThumb1 -24.326973 -0.000000 -32.862282
LeftUpLeg 4.655390 -3.003379 -1.113628
LeftLeg 4.395350 -0.000000 -0.000000
LeftFoot -18.197565 14.324330 -14.209008
LeftToeBase -10.178150 -0.000000 0.000000
RightUpLeg -13.381708 -6.862364 10.333944
RightLeg -7.709935 -0.000000 0.000000
RightFoot 7.497358 -14.179428 4.348677
RightToeBase 6.567200 -0.000000 -0.000000
467
root -26.665455 32.658323 5.396906 23.366242 -79.050405 -16.346252
Spine -18.494580 -10.366585 3.900575
Head 26.067983 -3.310686 0.593997
LeftShoulder -17.334200 18.852490 44.618792
LeftArm 123.078022 -62.836338 -75.171536
LeftForeArm 26.814349 -0.000000 19.767957
LeftHand 20.014355 0.000000 38.271798
LeftHandThumb1 -26.253704 0.000000 33.147579
RightShoulder -21.379058 34.663577 -62.165683
RightArm 59.665258 24.203264 36.042659
RightForeArm -21.212651 -0.000000 15.540152
RightHand 27.799596 -0.000000 -51.156794
RightHandThumb1 -24.326973 -0.000000 -32.862282
LeftUpLeg 4.522682 -3.192270 -1.069571
LeftLeg 4.219800 -0.000000 -0.000000
LeftFoot -18.559112 14.450458 -14.192874
LeftToeBase -9.959427 -0.000000 0.000000
RightUpLeg -13.644184 -6.680237 10.412185
RightLeg -7.777137 -0.000000 0.000000
RightFoot 7.630651 -14.266043 4.413163
RightToeBase 6.686948 -0.000000 -0.000000
468
root -26.561696 32.634295 5.385725 23.840862 -79.164465 -16.739281
Spine -18.362244 -10.332443 3.913932
Head 25.865209 -3.304332 0.778882
LeftShoulder -17.350835 18.860818 44.674111
LeftArm 123.286173 -62.860717 -75.378667
LeftForeArm 26.905093 -0.000000 19.729185
LeftHand 20.035410 -0.000000 38.304052
LeftHandThumb1 -26.253704 0.000000 33.147579
RightShoulder -21.401031 34.666736 -62.107195
RightArm 59.696454 24.274227 36.157486
RightForeArm -21.198349 -0.000000 15.533873
RightHand 27.749706 -0.000000 -51.451781
RightHandThumb1 -24.326973 -0.000000 -32.862282
LeftUpLeg 4.400970 -3.423440 -1.059809
LeftLeg 4.090150 -0.000000 -0.000000
LeftFoot -18.873954 14.575731 -14.162997
LeftToeBase -10.061535 -0.000000 0.000000
RightUpLeg -13.875793 -6.468653 10.438874
RightLeg -7.854968 -0.000000 0.000000
RightFoot 7.773115 -14.380681 4.436642
RightToeBase 6.926436 -0.000000 -0.000000
469
root -26.452643 32.614493 5.377184 23.888626 -79.287334 -16.717369
Spine -18.201167 -10.320713 3.823633
Head 25.691968 -3.319033 0.997288
LeftShoulder -17.392732 18.894862 44.707415
LeftArm 123.620553 -62.849441 -75.665346
LeftForeArm 27.021393 -0.000000 19.715486
LeftHand 20.102640 -0.000000 38.296017
LeftHandThumb1 -26.253704 0.000000 33.147579
RightShoulder -21.443760 34.718244 -62.035101
RightArm 59.695519 24.245716 36.168961
RightForeArm -21.159853 -0.000000 15.483021
RightHand 27.830167 -0.000000 -51.385522
RightHandThumb1 -24.326973 -0.000000 -32.862282
LeftUpLeg 4.263955 -3.823811 -1.153994
LeftLeg 3.983574 -0.000000 -0.000000
LeftFoot -19.141053 14.859334 -14.103809
LeftToeBase -9.958247 -0.000000 0.000000
RightUpLeg -14.126645 -6.278129 10.376260
RightLeg -7.875734 -0.000000 0.000000
RightFoot 7.917354 -14.487748 4.485998
RightToeBase 6.979959 -0.000000 -0.000000
470
root -26.342781 32.597135 5.370589 23.680044 -79.416622 -16.476330
Spine -17.998103 -10.320395 3.677513
Head 25.551796 -3.358729 1.205499
LeftShoulder -17.387042 18.867991 44.767524
LeftArm 123.755943 -62.862541 -75.778219
LeftForeArm 27.127271 -0.000000 19.759057
LeftHand 20.121103 -0.000000 38.286136
LeftHandThumb1 -26.253704 0.000000 33.147579
RightShoulder -21.536852 34.868815 -62.067041
RightArm 59.613281 24.120666 36.304024
RightForeArm -21.134088 0.000000 15.503948
RightHand 27.903450 -0.000000 -51.358878
RightHandThumb1 -24.326973 -0.000000 -32.862282
LeftUpLeg 4.153857 -4.218373 -1.279340
LeftLeg 3.883808 -0.000000 -0.000000
LeftFoot -19.344171 15.098837 -14.022439
LeftToeBase -9.934406 -0.000000 0.000000
RightUpLeg -14.329180 -6.106146 10.267166
RightLeg -7.916573 -0.000000 0.000000
RightFoot 8.115898 -14.583442 4.463350
RightToeBase 7.043794 -0.000000 -0.000000
471
root -26.231173 32.584093 5.363465 23.231878 -79.531330 -16.006143
Spine -17.784038 -10.340978 3.470086
Head 25.455801 -3.415824 1.439697
LeftShoulder -17.377048 18.824202 44.845564
LeftArm 123.878823 -62.820509 -75.878888
LeftForeArm 27.277553 -0.000000 19.843293
LeftHand 20.084714 0.000000 38.168609
LeftHandThumb1 -26.253704 0.000000 33.147579
RightShoulder -21.511446 34.684190 -61.832029
RightArm 59.766119 24.187081 36.284029
RightForeArm -21.004860 0.000000 15.423923
RightHand 27.792438 -0.000000 -51.440018
RightHandThumb1 -24.326973 -0.000000 -32.862282
LeftUpLeg 4.016891 -4.619567 -1.427062
LeftLeg 3.825020 -0.000000 -0.000000
LeftFoot -19.487992 15.299451 -13.988963
LeftToeBase -9.928846 -0.000000 0.000000
RightUpLeg -14.545896 -5.976332 10.130328
RightLeg -7.914228 -0.000000 0.000000
RightFoot 8.314693 -14.676135 4.398228
RightToeBase 7.059998 -0.000000 -0.000000
